<?xml version="1.0" encoding="UTF-8"?>
<svg xmlns="http://www.w3.org/2000/svg" xmlns:xlink="http://www.w3.org/1999/xlink" width="250px" height="89px" viewBox="0 0 249 89" version="1.1">
<g id="surface1">
<path style=" stroke:none;fill-rule:evenodd;fill:rgb(3.529412%,15.294118%,31.37255%);fill-opacity:1;" d="M 20.5625 4.914062 L 18.660156 5.308594 L 16.921875 6.035156 L 15.179688 6.757812 L 13.515625 7.847656 L 11.847656 8.933594 L 10.429688 10.355469 L 9.011719 11.773438 L 7.214844 14.421875 L 6.515625 15.808594 L 5.816406 17.199219 L 5.214844 19.164062 L 4.613281 21.132812 L 4.613281 28.511719 L 5.222656 30.511719 L 5.835938 32.515625 L 6.714844 34.203125 L 7.59375 35.894531 L 8.832031 37.457031 L 10.074219 39.019531 L 11.464844 40.210938 L 12.851562 41.402344 L 15.757812 43.136719 L 16.597656 43.488281 L 17.433594 43.835938 L 17.433594 33.503906 L 16.769531 31.988281 L 16.101562 30.472656 L 15.738281 29.15625 L 15.371094 27.839844 L 15.261719 25.144531 L 15.148438 22.449219 L 16.140625 18.449219 L 16.921875 16.882812 L 17.703125 15.320312 L 18.476562 14.261719 L 19.253906 13.203125 L 20.636719 11.953125 L 22.015625 10.699219 L 23.804688 9.824219 L 25.59375 8.945312 L 27.039062 8.585938 L 28.488281 8.222656 L 31.0625 8.328125 L 33.640625 8.433594 L 36.992188 9.660156 L 38.582031 10.640625 L 40.167969 11.621094 L 41.742188 13.277344 L 43.3125 14.933594 L 44.203125 16.464844 L 45.089844 18 L 46.066406 20.648438 L 46.714844 23.734375 L 46.714844 27.730469 L 241.175781 27.730469 L 241.175781 9.167969 L 37.621094 9.167969 L 35.84375 7.976562 L 34.0625 6.789062 L 30.539062 5.320312 L 28.433594 4.894531 L 26.332031 4.472656 L 24.398438 4.492188 L 22.464844 4.515625 L 20.5625 4.914062 M 95.554688 15.765625 L 94.660156 16.082031 L 93.726562 17.070312 L 92.789062 18.054688 L 92.039062 20.640625 L 92.304688 22.585938 L 92.730469 23.425781 L 93.160156 24.261719 L 93.574219 24.625 L 93.988281 24.992188 L 94.703125 25.355469 L 95.421875 25.714844 L 96.714844 25.710938 L 98.011719 25.703125 L 99.578125 25.070312 L 101.140625 24.4375 L 101.257812 23.183594 L 101.371094 21.929688 L 101.796875 21.621094 L 102.222656 21.308594 L 102.078125 20.941406 L 101.9375 20.574219 L 97.992188 20.574219 L 97.738281 20.824219 L 97.488281 21.074219 L 97.605469 21.382812 L 97.726562 21.691406 L 98.480469 21.691406 L 98.75 21.960938 L 99.019531 22.226562 L 99.019531 23.441406 L 98.882812 23.792969 L 98.75 24.144531 L 97.015625 24.613281 L 95.671875 23.917969 L 95.25 23.082031 L 94.824219 22.25 L 94.671875 21.316406 L 94.515625 20.386719 L 94.675781 19.304688 L 94.839844 18.226562 L 95.566406 17.5 L 96.292969 16.769531 L 97.152344 16.773438 L 98.011719 16.773438 L 99.449219 17.648438 L 99.902344 18.535156 L 100.351562 19.425781 L 100.535156 19.535156 L 100.714844 19.648438 L 101.277344 19.304688 L 101.210938 17.757812 L 101.140625 16.210938 L 100.582031 16.148438 L 100.023438 16.082031 L 98.667969 15.753906 L 97.3125 15.429688 L 96.882812 15.441406 L 96.449219 15.449219 L 95.554688 15.765625 M 175.480469 15.808594 L 174.265625 16.179688 L 172.621094 17.824219 L 171.886719 19.980469 L 171.886719 21.527344 L 172.394531 23.230469 L 173.753906 24.878906 L 175.574219 25.707031 L 177.089844 25.710938 L 178.609375 25.714844 L 179.4375 25.289062 L 180.269531 24.863281 L 180.855469 24.226562 L 181.445312 23.589844 L 182.257812 22.027344 L 182.273438 18.628906 L 181.667969 17.714844 L 181.058594 16.796875 L 179.058594 15.625 L 177.875 15.53125 L 176.691406 15.441406 L 175.480469 15.808594 M 112.484375 15.800781 L 112.207031 15.914062 L 112.207031 16.5625 L 112.597656 16.699219 L 112.988281 16.839844 L 113.769531 17.511719 L 113.769531 24.011719 L 113.296875 24.515625 L 112.820312 25.023438 L 112.953125 25.371094 L 113.085938 25.714844 L 116.640625 25.714844 L 116.992188 25.582031 L 117.347656 25.445312 L 117.347656 24.835938 L 116.84375 24.574219 L 116.339844 24.308594 L 116.011719 23.816406 L 116.007812 22.515625 L 116.007812 21.210938 L 116.496094 21.285156 L 116.984375 21.355469 L 118.003906 23.144531 L 119.027344 24.933594 L 119.824219 25.363281 L 120.621094 25.789062 L 121.5 25.363281 L 122.375 24.933594 L 122.375 24.261719 L 121.902344 24.195312 L 121.425781 24.125 L 120.984375 23.636719 L 120.539062 23.144531 L 119.914062 21.96875 L 119.285156 20.792969 L 119.742188 20.292969 L 120.195312 19.789062 L 120.449219 19.300781 L 120.699219 18.8125 L 120.699219 17.996094 L 120.292969 17.234375 L 119.882812 16.46875 L 119.121094 16.0625 L 118.359375 15.652344 L 115.5625 15.671875 L 112.765625 15.6875 L 112.484375 15.800781 M 132.023438 15.800781 L 131.875 15.953125 L 131.875 16.503906 L 132.523438 16.730469 L 133.175781 16.957031 L 133.25 20.164062 L 133.328125 23.367188 L 133.757812 24.074219 L 134.183594 24.78125 L 135.015625 25.246094 L 135.847656 25.714844 L 139.078125 25.714844 L 139.960938 25.222656 L 140.839844 24.726562 L 141.253906 24.046875 L 141.671875 23.367188 L 141.914062 22.042969 L 142.15625 20.714844 L 142.15625 17.136719 L 142.628906 16.632812 L 143.097656 16.132812 L 142.949219 15.894531 L 142.800781 15.652344 L 139.503906 15.652344 L 139.339844 15.917969 L 139.171875 16.183594 L 139.585938 16.421875 L 139.996094 16.660156 L 140.816406 17.441406 L 140.8125 19.398438 L 140.804688 21.355469 L 140.40625 23.074219 L 139.921875 23.59375 L 139.4375 24.109375 L 138.707031 24.246094 L 137.972656 24.382812 L 137.105469 24.097656 L 136.234375 23.816406 L 135.84375 23.03125 L 135.453125 22.25 L 135.453125 17.421875 L 136.027344 16.847656 L 136.597656 16.273438 L 136.480469 15.964844 L 136.359375 15.652344 L 132.175781 15.652344 L 132.023438 15.800781 M 153.257812 15.800781 L 153.109375 15.953125 L 153.109375 16.523438 L 153.726562 16.816406 L 154.339844 17.113281 L 154.464844 24.261719 L 153.988281 24.652344 L 153.507812 25.042969 L 153.773438 25.730469 L 158.132812 25.605469 L 158.210938 25.214844 L 158.285156 24.824219 L 157.160156 24.394531 L 156.925781 23.953125 L 156.6875 23.507812 L 156.6875 21.265625 L 157.804688 21.398438 L 158.917969 21.527344 L 159.871094 21.15625 L 160.820312 20.785156 L 161.269531 20.175781 L 161.714844 19.566406 L 161.714844 17.476562 L 160.597656 16.265625 L 159.878906 15.960938 L 159.160156 15.652344 L 153.410156 15.652344 L 153.257812 15.800781 M 116.285156 16.917969 L 116.007812 17.03125 L 116.007812 19.902344 L 118.027344 19.902344 L 118.277344 19.351562 L 118.527344 18.804688 L 118.242188 18.113281 L 117.953125 17.421875 L 117.328125 17.097656 L 116.699219 16.769531 L 116.566406 16.808594 L 116.285156 16.917969 M 156.917969 17.203125 L 156.6875 17.636719 L 156.6875 20.074219 L 157.402344 20.179688 L 158.113281 20.285156 L 158.527344 20.175781 L 158.941406 20.070312 L 159.234375 19.480469 L 159.527344 18.894531 L 159.328125 18.171875 L 159.132812 17.449219 L 157.828125 16.769531 L 157.148438 16.769531 L 156.917969 17.203125 M 175.277344 17.4375 L 174.609375 18.105469 L 174.304688 19.910156 L 174.460938 21.082031 L 174.621094 22.25 L 174.921875 22.839844 L 175.222656 23.425781 L 176.613281 24.597656 L 177.808594 24.597656 L 178.523438 24.160156 L 179.242188 23.722656 L 179.613281 23 L 179.988281 22.277344 L 179.988281 19.546875 L 179.019531 17.648438 L 178.304688 17.210938 L 177.585938 16.773438 L 176.765625 16.773438 L 175.945312 16.769531 L 175.277344 17.4375 M 16.710938 24.558594 L 16.59375 24.996094 L 16.734375 25.203125 L 16.875 25.414062 L 17.65625 25.703125 L 17.65625 29.070312 L 17.882812 29.074219 L 18.105469 29.078125 L 28.164062 29.078125 L 28.378906 29.074219 L 28.589844 29.070312 L 28.65625 27.335938 L 28.722656 25.605469 L 31.03125 25.539062 L 33.335938 25.476562 L 34.09375 25.941406 L 34.847656 26.410156 L 35.75 27.761719 L 36.652344 29.117188 L 37.003906 30.265625 L 37.359375 31.417969 L 37.480469 33.09375 L 37.605469 34.773438 L 37.253906 36.152344 L 36.898438 37.535156 L 36.394531 38.613281 L 35.894531 39.691406 L 33.410156 42.191406 L 32.257812 42.574219 L 31.101562 42.960938 L 29.914062 42.890625 L 28.722656 42.824219 L 28.664062 37.175781 L 28.601562 31.53125 L 17.882812 31.53125 L 17.882812 56.808594 L 23.191406 56.746094 L 28.5 56.6875 L 28.558594 51.089844 L 28.617188 45.488281 L 30.792969 45.203125 L 32.96875 44.914062 L 34.9375 44.261719 L 36.90625 43.605469 L 37.476562 43.605469 L 37.71875 44.332031 L 37.964844 45.058594 L 39.777344 50.082031 L 40.367188 51.253906 L 40.960938 52.425781 L 42.328125 53.792969 L 43.699219 55.15625 L 45.394531 55.996094 L 47.089844 56.832031 L 50.589844 57.300781 L 52.097656 57.050781 L 53.601562 56.800781 L 54.683594 56.335938 L 55.769531 55.871094 L 56.957031 54.953125 L 58.148438 54.035156 L 59.507812 51.339844 L 59.546875 48.636719 L 59.058594 47.699219 L 58.566406 46.761719 L 57.832031 46.203125 L 57.101562 45.644531 L 56.042969 45.359375 L 54.988281 45.078125 L 53.757812 45.335938 L 52.53125 45.59375 L 51.519531 46.289062 L 50.511719 46.984375 L 49.84375 48.144531 L 49.179688 49.308594 L 49.175781 49.699219 L 49.175781 50.089844 L 48.511719 50.089844 L 46.941406 48.605469 L 45.367188 47.125 L 44.609375 46.089844 L 43.851562 45.058594 L 43.074219 43.492188 L 42.296875 41.929688 L 42.15625 41.257812 L 42.011719 40.585938 L 43.371094 39.140625 L 44.726562 37.695312 L 45.542969 36.039062 L 46.363281 34.382812 L 46.542969 31.53125 L 241.199219 31.53125 L 241.132812 30.246094 L 241.066406 28.957031 L 143.945312 28.898438 L 46.828125 28.839844 L 46.449219 29.296875 L 46.074219 29.757812 L 45.703125 28.976562 L 45.335938 28.199219 L 44.230469 27.167969 L 43.125 26.132812 L 41.957031 25.597656 L 40.792969 25.066406 L 39.449219 24.679688 L 38.109375 24.289062 L 27.46875 24.207031 L 16.824219 24.121094 L 16.710938 24.558594 M 72.980469 37.347656 L 71.859375 37.519531 L 70.582031 38.003906 L 69.300781 38.492188 L 67.976562 39.464844 L 66.652344 40.441406 L 66.003906 41.410156 L 65.359375 42.375 L 64.625 44.164062 L 64.410156 44.945312 L 64.191406 45.730469 L 64.0625 46.789062 L 63.9375 47.84375 L 64.15625 49.574219 L 64.375 51.300781 L 65.6875 54.113281 L 67.890625 56.316406 L 69 56.875 L 70.105469 57.4375 L 71.53125 57.804688 L 72.957031 58.175781 L 74.753906 58.113281 L 76.554688 58.050781 L 79.132812 57.285156 L 81.078125 56.144531 L 83.398438 53.605469 L 83.910156 52.574219 L 84.425781 51.542969 L 84.820312 50.058594 L 85.214844 48.570312 L 85.035156 44.164062 L 83.621094 41.148438 L 81.355469 38.882812 L 78.566406 37.585938 L 75.660156 37.125 L 74.878906 37.148438 L 74.097656 37.175781 L 72.980469 37.347656 M 153.601562 37.613281 L 153.332031 37.882812 L 153.332031 38.222656 L 150.527344 43.941406 L 149.875 45.507812 L 149.226562 47.070312 L 145.507812 55.570312 L 143.429688 57.492188 L 143.835938 57.867188 L 145.609375 57.714844 L 147.386719 57.5625 L 148.742188 57.722656 L 150.09375 57.886719 L 150.304688 57.679688 L 150.519531 57.46875 L 150.304688 57.285156 L 150.09375 57.097656 L 149.179688 56.839844 L 148.265625 56.578125 L 147.867188 56.140625 L 147.46875 55.699219 L 147.480469 54.785156 L 147.496094 53.867188 L 148.234375 52.371094 L 148.976562 50.875 L 149.644531 50.734375 L 150.316406 50.589844 L 155.457031 50.542969 L 156.015625 50.828125 L 156.570312 51.109375 L 157.296875 52.78125 L 158.019531 54.449219 L 158.027344 56.089844 L 156.652344 57.246094 L 156.203125 57.246094 L 156.359375 57.722656 L 160.664062 57.761719 L 164.96875 57.804688 L 164.902344 57.472656 L 164.839844 57.140625 L 163.949219 56.976562 L 163.222656 56.425781 L 162.492188 55.875 L 161.929688 54.765625 L 161.363281 53.652344 L 155.613281 40.363281 L 154.929688 38.855469 L 154.246094 37.34375 L 153.871094 37.34375 L 153.601562 37.613281 M 197.964844 37.507812 L 194.875 37.582031 L 194.960938 37.832031 L 195.042969 38.082031 L 196.082031 38.347656 L 197.117188 38.609375 L 197.5 38.925781 L 197.882812 39.246094 L 198.226562 40.027344 L 198.566406 40.808594 L 198.664062 44.785156 L 198.757812 48.761719 L 198.605469 49.996094 L 198.449219 51.234375 L 197.714844 51.09375 L 193.796875 46.722656 L 189.878906 42.355469 L 187.855469 40.015625 L 185.828125 37.679688 L 182.75 37.617188 L 179.675781 37.554688 L 179.746094 37.9375 L 179.820312 38.324219 L 180.578125 38.519531 L 181.332031 38.714844 L 181.886719 39.078125 L 182.445312 39.441406 L 182.863281 40.425781 L 183.285156 41.40625 L 183.285156 54.566406 L 182.828125 55.542969 L 182.371094 56.515625 L 181.597656 56.933594 L 180.824219 57.347656 L 180.894531 57.554688 L 180.960938 57.761719 L 184.601562 57.746094 L 188.238281 57.734375 L 188.472656 57.5 L 188.175781 57.023438 L 187.6875 57.019531 L 187.195312 57.015625 L 186.304688 56.507812 L 185.410156 56.003906 L 185.089844 55.113281 L 184.765625 54.226562 L 184.753906 48.300781 L 184.738281 42.375 L 185.285156 42.375 L 192.117188 49.980469 L 198.945312 57.582031 L 199.714844 57.582031 L 199.679688 56.800781 L 199.640625 56.015625 L 200.09375 40.140625 L 200.609375 39.039062 L 202.171875 37.984375 L 202.171875 37.457031 L 201.054688 37.433594 L 197.964844 37.507812 M 226.65625 40.195312 L 225.25 43.046875 L 224.722656 44.316406 L 224.199219 45.589844 L 223.53125 47.046875 L 222.859375 48.507812 L 221.847656 50.921875 L 220.832031 53.332031 L 220.109375 54.777344 L 219.382812 56.222656 L 218.601562 56.75 L 217.820312 57.273438 L 217.753906 57.457031 L 217.6875 57.636719 L 218.265625 57.855469 L 221.84375 57.558594 L 223.039062 57.722656 L 224.238281 57.886719 L 224.535156 57.769531 L 224.832031 57.65625 L 224.589844 57.023438 L 223.714844 57.023438 L 223.226562 56.769531 L 222.738281 56.519531 L 222.234375 56.0625 L 221.730469 55.601562 L 221.730469 54.355469 L 222.199219 53.105469 L 222.664062 51.859375 L 223.703125 50.648438 L 226.441406 50.570312 L 229.179688 50.488281 L 230.007812 50.738281 L 230.832031 50.984375 L 231.972656 53.554688 L 232.253906 54.511719 L 232.53125 55.464844 L 232.222656 56.039062 L 231.917969 56.613281 L 231.292969 56.9375 L 230.671875 57.257812 L 230.671875 57.804688 L 239.164062 57.757812 L 239.222656 57.5625 L 239.277344 57.363281 L 238.222656 56.863281 L 237.164062 56.363281 L 236.125 54.675781 L 234.148438 50.089844 L 232.175781 45.507812 L 231.371094 43.71875 L 230.101562 40.808594 L 228.832031 37.902344 L 228.605469 37.625 L 228.382812 37.34375 L 228.0625 37.34375 L 226.65625 40.195312 M 101.953125 37.769531 L 101.644531 37.964844 L 101.792969 38.203125 L 101.941406 38.445312 L 102.769531 38.597656 L 103.601562 38.753906 L 104.113281 39.085938 L 104.625 39.421875 L 104.878906 39.890625 L 105.132812 40.363281 L 105.296875 41.257812 L 105.464844 42.152344 L 105.257812 47.855469 L 105.054688 53.554688 L 104.8125 54.605469 L 104.566406 55.65625 L 104.050781 56.171875 L 103.539062 56.6875 L 103.011719 57.054688 L 102.484375 57.425781 L 102.613281 57.558594 L 102.742188 57.695312 L 105.964844 57.75 L 109.183594 57.804688 L 109.292969 57.132812 L 108.347656 56.6875 L 107.402344 56.238281 L 106.878906 55.234375 L 106.355469 54.226562 L 106.460938 49.234375 L 106.5625 44.242188 L 107 43.804688 L 107.296875 44.542969 L 107.597656 45.28125 L 109.019531 48.414062 L 110.304688 51.320312 L 111.585938 54.226562 L 113.328125 57.695312 L 113.976562 57.695312 L 115.328125 54.882812 L 116.675781 52.070312 L 116.675781 51.914062 L 118.566406 47.984375 L 120.453125 44.054688 L 120.859375 44.054688 L 121.148438 49.632812 L 121.433594 55.210938 L 121.15625 55.886719 L 120.875 56.558594 L 120.222656 56.847656 L 119.570312 57.132812 L 119.695312 57.71875 L 120.140625 57.726562 L 122.152344 57.589844 L 124.164062 57.449219 L 127.070312 57.808594 L 127.574219 57.734375 L 128.078125 57.664062 L 128.078125 57.054688 L 127.070312 56.75 L 126.335938 56.410156 L 125.597656 56.066406 L 125.296875 55.484375 L 124.992188 54.898438 L 124.859375 53.667969 L 124.722656 52.4375 L 124.488281 46.945312 L 124.257812 41.449219 L 124.472656 40.480469 L 124.691406 39.511719 L 125.148438 39.058594 L 125.601562 38.601562 L 126.320312 38.363281 L 127.035156 38.125 L 127.128906 37.847656 L 127.21875 37.566406 L 122.558594 37.566406 L 122.207031 37.960938 L 121.859375 38.351562 L 121.183594 39.691406 L 120.511719 41.035156 L 118.691406 44.945312 L 116.871094 48.859375 L 116.066406 50.59375 L 115.265625 52.328125 L 114.515625 52.328125 L 113.03125 49.085938 L 108.148438 38.351562 L 107.796875 37.960938 L 107.441406 37.566406 L 102.261719 37.574219 L 101.953125 37.769531 M 72.15625 38.539062 L 71.109375 38.832031 L 69.523438 40.042969 L 68.359375 42.035156 L 68.035156 43.210938 L 67.714844 44.386719 L 67.707031 46.65625 L 67.703125 48.925781 L 68.0625 50.324219 L 68.425781 51.726562 L 68.90625 52.753906 L 69.382812 53.78125 L 71.859375 56.273438 L 74.0625 57.023438 L 76.164062 57.023438 L 77.125 56.683594 L 78.089844 56.34375 L 79.558594 55.21875 L 80.21875 54.261719 L 80.875 53.304688 L 81.277344 51.976562 L 81.675781 50.648438 L 81.667969 45.953125 L 81.261719 44.722656 L 80.851562 43.492188 L 80.308594 42.410156 L 79.769531 41.332031 L 78.765625 40.324219 L 77.761719 39.320312 L 75.816406 38.460938 L 74.507812 38.351562 L 73.203125 38.242188 L 72.15625 38.539062 M 151.132812 45.5625 L 149.773438 48.636719 L 150.144531 48.917969 L 150.511719 49.195312 L 155.542969 49.195312 L 155.667969 48.996094 L 155.792969 48.792969 L 154.542969 45.917969 L 153.296875 43.046875 L 153.179688 42.765625 L 153.0625 42.488281 L 152.492188 42.488281 L 151.132812 45.5625 M 226.632812 42.960938 L 226.378906 43.4375 L 225.285156 45.914062 L 224.1875 48.394531 L 224.1875 48.925781 L 224.542969 49.058594 L 224.898438 49.195312 L 229.792969 49.195312 L 229.902344 48.90625 L 230.011719 48.621094 L 229.023438 46.253906 L 228.03125 43.890625 L 227.667969 43.1875 L 227.308594 42.488281 L 226.886719 42.488281 L 226.632812 42.960938 M 50.960938 70.238281 L 50.960938 70.441406 L 51.460938 70.441406 L 51.371094 72.003906 L 51.28125 73.570312 L 53.171875 73.570312 L 54.390625 72.523438 L 54.390625 71.085938 L 53.4375 70.132812 L 52.199219 70.082031 L 50.960938 70.035156 L 50.960938 70.238281 M 61.578125 71.808594 L 61.578125 73.570312 L 62.675781 73.570312 L 62.40625 73.300781 L 62.136719 73.035156 L 62.136719 70.441406 L 62.585938 70.441406 L 62.585938 70.046875 L 61.578125 70.046875 L 61.578125 71.808594 M 69.789062 70.339844 L 69.289062 70.6875 L 69.289062 71.46875 L 69.558594 71.738281 L 69.828125 72.003906 L 70.742188 72.011719 L 71.414062 72.441406 L 71.167969 72.835938 L 70.921875 73.234375 L 69.9375 73.382812 L 69.21875 72.789062 L 69.328125 73.125 L 69.4375 73.457031 L 70.050781 73.53125 L 70.660156 73.601562 L 71.207031 73.246094 L 71.75 72.890625 L 71.75 72.03125 L 71.488281 71.871094 L 71.230469 71.710938 L 70.539062 71.570312 L 69.851562 71.425781 L 69.851562 70.550781 L 71.527344 70.550781 L 71.527344 70.265625 L 71.171875 70.128906 L 70.820312 69.992188 L 70.285156 69.992188 L 69.789062 70.339844 M 78.457031 70.226562 L 78.457031 70.414062 L 78.679688 70.550781 L 78.902344 70.691406 L 78.902344 73.035156 L 78.621094 73.3125 L 78.34375 73.59375 L 79.667969 73.527344 L 80.992188 73.457031 L 81.089844 73.125 L 81.191406 72.789062 L 80.898438 73.066406 L 80.601562 73.347656 L 79.347656 73.347656 L 79.347656 71.953125 L 80.019531 72.050781 L 80.691406 72.152344 L 80.691406 71.570312 L 79.347656 71.835938 L 79.347656 70.390625 L 80.136719 70.484375 L 80.921875 70.574219 L 80.765625 70.105469 L 79.609375 70.074219 L 78.457031 70.039062 L 78.457031 70.226562 M 88.066406 70.214844 L 88.066406 70.441406 L 88.511719 70.441406 L 88.511719 73.035156 L 87.976562 73.570312 L 89.296875 73.5625 L 89.003906 73.378906 L 88.710938 73.191406 L 88.78125 71.996094 L 88.847656 70.796875 L 91.082031 73.570312 L 91.644531 73.570312 L 91.644531 70.699219 L 91.777344 70.347656 L 91.914062 69.992188 L 91.0625 69.992188 L 91.160156 71.5 L 91.253906 73.007812 L 90.109375 71.636719 L 88.960938 70.265625 L 88.609375 70.128906 L 88.253906 69.992188 L 88.066406 69.992188 L 88.066406 70.214844 M 100.136719 70.1875 L 100.136719 70.441406 L 101.183594 70.441406 L 101.554688 70.847656 L 101.925781 71.257812 L 101.925781 72.621094 L 101.582031 72.902344 L 101.242188 73.1875 L 101.359375 73.300781 L 101.476562 73.417969 L 101.921875 73.011719 L 102.371094 72.605469 L 102.371094 70.957031 L 101.558594 70.222656 L 100.847656 70.078125 L 100.136719 69.9375 L 100.136719 70.1875 M 114.632812 71.636719 L 114.71875 73.175781 L 114.414062 73.371094 L 114.105469 73.5625 L 115.503906 73.566406 L 116.898438 73.570312 L 116.882812 73.179688 L 116.863281 72.789062 L 116.753906 73.066406 L 116.640625 73.347656 L 115.113281 73.347656 L 115.113281 71.953125 L 115.78125 72.050781 L 116.453125 72.152344 L 116.453125 71.636719 L 115.78125 71.734375 L 115.113281 71.832031 L 115.113281 70.441406 L 116.925781 70.441406 L 116.636719 69.972656 L 114.542969 70.097656 L 114.632812 71.636719 M 129.160156 71.632812 L 129.246094 73.175781 L 128.941406 73.371094 L 128.636719 73.5625 L 130.199219 73.5625 L 129.894531 73.371094 L 129.585938 73.175781 L 129.675781 71.632812 L 129.761719 70.089844 L 129.074219 70.089844 L 129.160156 71.632812 M 137.015625 70.214844 L 137.015625 70.441406 L 137.464844 70.441406 L 137.464844 73.308594 L 137.183594 73.421875 L 136.90625 73.535156 L 137.574219 73.550781 L 138.246094 73.5625 L 137.953125 73.378906 L 137.660156 73.191406 L 137.800781 70.808594 L 138.804688 72.0625 L 139.8125 73.320312 L 140.121094 73.449219 L 140.433594 73.582031 L 140.542969 73.457031 L 140.628906 71.726562 L 140.714844 69.992188 L 139.921875 69.992188 L 139.921875 70.441406 L 140.371094 70.441406 L 140.371094 72.898438 L 139.921875 72.898438 L 139.921875 72.535156 L 138.742188 71.261719 L 137.558594 69.992188 L 137.015625 69.992188 L 137.015625 70.214844 M 147.746094 70.203125 L 147.746094 70.414062 L 147.921875 70.519531 L 148.09375 70.628906 L 147.972656 72.101562 L 147.847656 73.570312 L 148.542969 73.570312 L 148.417969 72.230469 L 148.289062 70.886719 L 148.527344 70.886719 L 149.613281 72.230469 L 150.695312 73.570312 L 151.097656 73.570312 L 151.097656 70.441406 L 151.546875 70.441406 L 151.546875 70.019531 L 151.148438 70.050781 L 150.746094 70.082031 L 150.832031 71.546875 L 150.914062 73.011719 L 149.429688 71.222656 L 148.828125 70.605469 L 148.226562 69.992188 L 147.746094 69.992188 L 147.746094 70.203125 M 159.816406 70.214844 L 159.816406 70.441406 L 160.910156 70.441406 L 161.605469 71.433594 L 161.605469 72.351562 L 161.257812 72.851562 L 160.910156 73.347656 L 161.355469 73.347656 L 161.703125 72.851562 L 162.050781 72.351562 L 162.050781 71.371094 L 161.914062 71.007812 L 161.773438 70.648438 L 160.507812 69.992188 L 159.816406 69.992188 L 159.816406 70.214844 M 168.824219 70.214844 L 168.890625 70.328125 L 169.273438 71.167969 L 169.652344 72.003906 L 170.347656 73.683594 L 170.585938 73.265625 L 170.820312 72.847656 L 170.597656 72.707031 L 170.371094 72.5625 L 170.007812 71.691406 L 169.644531 70.816406 L 169.765625 70.425781 L 169.890625 70.039062 L 169.324219 70.070312 L 168.757812 70.105469 L 168.824219 70.214844 M 171.304688 70.347656 L 171.4375 70.699219 L 171.4375 71.195312 L 172.09375 70.328125 L 172.109375 69.992188 L 171.167969 69.992188 L 171.304688 70.347656 M 190.660156 70.148438 L 190.328125 70.273438 L 189.320312 71.1875 L 189.320312 72.472656 L 189.871094 73.019531 L 190.417969 73.570312 L 192.113281 73.523438 L 191.335938 73.34375 L 190.5625 73.160156 L 190.164062 72.667969 L 189.765625 72.179688 L 189.765625 71.433594 L 190.117188 70.9375 L 190.464844 70.441406 L 192.1875 70.441406 L 192.277344 70.707031 L 192.367188 70.976562 L 192.535156 70.707031 L 192.699219 70.4375 L 191.527344 69.992188 L 191.261719 70.011719 L 190.996094 70.027344 L 190.660156 70.148438 M 199.492188 71.808594 L 199.492188 73.570312 L 200.585938 73.570312 L 200.050781 73.035156 L 200.050781 70.441406 L 200.496094 70.441406 L 200.496094 70.046875 L 199.492188 70.046875 L 199.492188 71.808594 M 208.988281 70.214844 L 208.988281 70.441406 L 210.082031 70.441406 L 210.777344 71.433594 L 210.777344 72.351562 L 210.429688 72.851562 L 210.082031 73.347656 L 210.53125 73.347656 L 210.878906 72.851562 L 211.226562 72.351562 L 211.226562 70.878906 L 210.5 70.4375 L 209.773438 69.992188 L 208.988281 69.992188 L 208.988281 70.214844 M 215.660156 71.617188 L 215.75 73.175781 L 215.441406 73.371094 L 215.136719 73.5625 L 215.808594 73.550781 L 216.476562 73.535156 L 216.199219 73.421875 L 215.917969 73.308594 L 215.925781 72.042969 L 215.933594 70.773438 L 217.246094 72.230469 L 218.5625 73.683594 L 218.667969 73.570312 L 218.777344 73.457031 L 218.859375 71.769531 L 218.941406 70.078125 L 218.53125 70.046875 L 218.121094 70.019531 L 218.375 70.324219 L 218.625 70.628906 L 218.558594 71.8125 L 218.488281 72.996094 L 217.371094 71.628906 L 216.253906 70.257812 L 215.574219 70.0625 L 215.660156 71.617188 M 99.035156 70.804688 L 98.570312 71.394531 L 98.570312 72.472656 L 99.121094 73.019531 L 99.667969 73.570312 L 100.40625 73.535156 L 101.140625 73.503906 L 99.921875 73.316406 L 99.472656 72.742188 L 99.019531 72.167969 L 99.019531 71.25 L 99.503906 70.734375 L 99.992188 70.214844 L 99.5 70.214844 L 99.035156 70.804688 M 158.738281 70.734375 L 158.25 71.25 L 158.25 72.472656 L 158.800781 73.019531 L 159.347656 73.570312 L 160.085938 73.550781 L 160.820312 73.535156 L 160.375 73.386719 L 159.796875 73.257812 L 159.222656 73.132812 L 158.699219 71.984375 L 158.699219 71.128906 L 159.675781 70.214844 L 159.222656 70.214844 L 158.738281 70.734375 M 179.691406 71.894531 L 178.90625 73.570312 L 179.734375 73.570312 L 179.484375 73.164062 L 179.757812 72.453125 L 181.226562 72.453125 L 181.371094 72.824219 L 181.511719 73.199219 L 181.226562 73.382812 L 180.9375 73.5625 L 181.617188 73.566406 L 182.292969 73.570312 L 180.714844 70.21875 L 180.59375 70.214844 L 180.472656 70.214844 L 179.691406 71.894531 M 207.910156 70.734375 L 207.425781 71.25 L 207.425781 72.472656 L 208.523438 73.570312 L 209.257812 73.535156 L 209.996094 73.503906 L 208.777344 73.316406 L 207.871094 72.167969 L 207.871094 71.25 L 208.359375 70.734375 L 208.84375 70.214844 L 208.398438 70.214844 L 207.910156 70.734375 M 51.855469 71.894531 L 51.855469 73.347656 L 53.128906 73.347656 L 53.5 72.9375 L 53.867188 72.527344 L 53.867188 70.976562 L 53.601562 70.707031 L 53.332031 70.441406 L 51.855469 70.441406 L 51.855469 71.894531 M 180.199219 71.335938 L 179.984375 71.894531 L 180.082031 72.0625 L 180.183594 72.230469 L 180.800781 72.230469 L 181.011719 71.886719 L 180.710938 71.332031 L 180.410156 70.773438 L 180.199219 71.335938 M 219.625 80.347656 L 219.222656 80.644531 L 219.304688 81.074219 L 219.390625 81.503906 L 220.726562 81.738281 L 220.726562 82.402344 L 220 82.402344 L 219.273438 82.398438 L 219.273438 82.707031 L 220.054688 82.878906 L 220.558594 82.660156 L 221.058594 82.441406 L 221.058594 81.398438 L 220.640625 81.398438 L 220.042969 81.167969 L 219.445312 80.941406 L 219.726562 80.605469 L 220.003906 80.269531 L 220.449219 80.410156 L 220.890625 80.550781 L 220.738281 80.304688 L 220.585938 80.054688 L 220.027344 80.054688 L 219.625 80.347656 M 236.039062 80.34375 L 235.480469 80.625 L 235.402344 81.027344 L 235.324219 81.433594 L 235.453125 81.933594 L 235.578125 82.4375 L 236.726562 82.960938 L 237.152344 82.960938 L 237.152344 82.515625 L 236.285156 82.515625 L 235.960938 82.054688 L 235.636719 81.589844 L 235.753906 81.152344 L 235.867188 80.710938 L 236.289062 80.488281 L 236.707031 80.261719 L 237.152344 80.503906 L 237.601562 80.742188 L 237.601562 80.328125 L 237.246094 80.191406 L 236.894531 80.054688 L 236.742188 80.058594 L 236.59375 80.0625 L 236.039062 80.34375 M 239.886719 80.222656 L 239.972656 80.390625 L 240.492188 81.566406 L 241.011719 82.738281 L 241.398438 82.738281 L 241.398438 82.328125 L 241.53125 81.917969 L 241.667969 81.507812 L 241.199219 82.171875 L 240.84375 81.328125 L 240.492188 80.484375 L 240.757812 80.054688 L 239.796875 80.054688 L 239.886719 80.222656 M 224.414062 80.613281 L 224.414062 80.949219 L 224.859375 80.949219 L 224.859375 81.671875 L 224.453125 81.566406 L 224.050781 81.460938 L 223.683594 82.097656 L 223.316406 82.738281 L 223.964844 82.738281 L 223.941406 82.570312 L 223.914062 82.402344 L 223.941406 82.109375 L 223.964844 81.816406 L 224.582031 81.886719 L 225.195312 81.957031 L 225.132812 82.738281 L 225.972656 82.738281 L 225.371094 81.507812 L 224.765625 80.277344 L 224.414062 80.277344 L 224.414062 80.613281 M 229.289062 81.828125 L 229.375 82.707031 L 229.703125 82.835938 L 230.035156 82.960938 L 230.894531 82.5 L 230.894531 81.222656 L 230.542969 81.085938 L 230.1875 80.949219 L 229.207031 80.949219 L 229.289062 81.828125 M 231.902344 81.789062 L 231.902344 82.625 L 232.328125 82.800781 L 232.757812 82.976562 L 233.21875 82.515625 L 232.234375 82.515625 L 232.234375 82.066406 L 232.992188 82.066406 L 232.558594 81.746094 L 232.125 81.429688 L 233.242188 80.976562 L 232.570312 80.964844 L 231.902344 80.949219 L 231.902344 81.789062 M 229.554688 81.84375 L 229.554688 82.546875 L 230.058594 82.476562 L 230.558594 82.402344 L 230.558594 81.285156 L 230.058594 81.214844 L 229.554688 81.140625 L 229.554688 81.84375 "/>
</g>
</svg>
