<svg width="26" height="26" viewBox="0 0 26 26" fill="none" xmlns="http://www.w3.org/2000/svg">
<rect x="0.5" y="0.5" width="25" height="25" fill="#00204F"/>
<rect x="0.5" y="0.5" width="25" height="25" stroke="#00204F"/>
<path d="M13 3C7.486 3 3 7.486 3 13C3 18.514 7.486 23 13 23C18.514 23 23 18.514 23 13C23 7.486 18.514 3 13 3ZM17.207 15.793L15.793 17.207L13 14.414L10.207 17.207L8.793 15.793L11.586 13L8.793 10.207L10.207 8.793L13 11.586L15.793 8.793L17.207 10.207L14.414 13L17.207 15.793Z" fill="white"/>
</svg>
